<svg viewBox="0 0 16 16" xmlns="http://www.w3.org/2000/svg" fit="" height="1em" width="1em" preserveAspectRatio="xMidYMid meet" focusable="false"><g id="baj1.Base基础/1.icon图标/2.normal/view-tile" stroke-width="1" fill-rule="evenodd"><path d="M1 1.75h5.5v5.5H1v-5.5zm1.2 1.2v3.1h3.1v-3.1H2.2zM1 8.75h5.5v5.5H1v-5.5zm1.2 1.2v3.1h3.1v-3.1H2.2zm6.2-7.7h6a.6.6 0 0 1 0 1.2h-6a.6.6 0 1 1 0-1.2zm0 7h6a.6.6 0 0 1 0 1.2h-6a.6.6 0 0 1 0-1.2zm0 3.3h6a.6.6 0 0 1 0 1.2h-6a.6.6 0 0 1 0-1.2zm0-6.8h6a.6.6 0 0 1 0 1.2h-6a.6.6 0 1 1 0-1.2z" id="baj形状结合"></path></g></svg>