<svg viewBox="0 0 16 16" xmlns="http://www.w3.org/2000/svg" fit="" height="1em" width="1em" preserveAspectRatio="xMidYMid meet" focusable="false"><g id="avfaction/star-fill" stroke-width="1" fill-rule="evenodd"><path d="M9.186 2.12l1.02 2.769c.073.292.365.437.656.437l2.915.146c1.166.073 1.676 1.53.73 2.26l-2.26 1.821c-.219.146-.291.51-.219.729l.73 2.842c.29 1.093-.948 2.04-1.896 1.384l-2.477-1.603a.79.79 0 0 0-.802 0l-2.478 1.676c-.947.583-2.186-.291-1.894-1.457l.728-2.842c.073-.292 0-.583-.218-.729L1.46 7.731c-.874-.729-.437-2.186.73-2.259l2.914-.146c.292 0 .51-.218.656-.437l1.093-2.77c.365-1.092 1.895-1.092 2.332 0z" id="avf路径"></path></g></svg>