<svg viewBox="0 0 16 16" xmlns="http://www.w3.org/2000/svg" fit="" height="1em" width="1em" preserveAspectRatio="xMidYMid meet" focusable="false"><g id="amdhorizontal-two-lines" stroke-width="1" fill-rule="evenodd"><path d="M4.092 12.354c0 .163-.138.3-.3.3a.304.304 0 0 1-.3-.3v-2c0-.163.137-.3.3-.3.162 0 .3.137.3.3v2zm1.2-1.554v-.446c0-.825-.675-1.5-1.5-1.5s-1.5.675-1.5 1.5v.446H1.1a.6.6 0 1 0 0 1.2h1.192v.354c0 .825.675 1.5 1.5 1.5s1.5-.675 1.5-1.5V12h9.577a.6.6 0 0 0 0-1.2H5.292zM10.798 6c0 .163-.138.3-.3.3a.304.304 0 0 1-.3-.3V4c0-.163.137-.3.3-.3.162 0 .3.137.3.3v2zm1.2-1.6V4c0-.825-.675-1.5-1.5-1.5s-1.5.675-1.5 1.5v.4H1.1a.6.6 0 1 0 0 1.2h7.898V6c0 .825.675 1.5 1.5 1.5s1.5-.675 1.5-1.5v-.4h2.871a.6.6 0 1 0 0-1.2H12z" id="amd形状结合"></path></g></svg>