<svg viewBox="0 0 16 16" xmlns="http://www.w3.org/2000/svg" fit="" height="1em" width="1em" preserveAspectRatio="xMidYMid meet" focusable="false"><g id="ahxaction/copy" stroke-width="1" fill-rule="evenodd"><g id="ahx复制" transform="translate(2 -.27)" fill-rule="nonzero"><path d="M5.6 8.47v-1.2h4.174v1.2H5.6zm0 3v-1.2h4.174v1.2H5.6zm-4.4-10v10.075H0L.003 2.27c0-1.088.895-2 1.997-2h7.585v1.2H1.2zm1.8.8h9a1 1 0 0 1 1 1v12a1 1 0 0 1-1 1H3a1 1 0 0 1-1-1v-12a1 1 0 0 1 1-1zm.2 1.2v11.6h8.6V3.47H3.2z" id="ahx形状结合"></path></g></g></svg>