<svg viewBox="0 0 16 16" xmlns="http://www.w3.org/2000/svg" fit="" height="1em" width="1em" preserveAspectRatio="xMidYMid meet" focusable="false"><g id="ayc1.Base基础/1.icon图标/2.normal/1-bold" stroke-width="1" fill-rule="evenodd"><path d="M4.17 8.5a2.95 2.95 0 1 1 0 5.9 2.95 2.95 0 0 1 0-5.9zm0 1.8a1.15 1.15 0 1 0 0 2.3 1.15 1.15 0 0 0 0-2.3zm9.65 2h-5a.8.8 0 1 0 0 1.6h5a.8.8 0 1 0 0-1.6zm0-3.3h-5a.8.8 0 1 0 0 1.6h5a.8.8 0 1 0 0-1.6zM3.398 4.689l-.883-.83-.084-.069a.9.9 0 0 0-1.149 1.381L3.44 7.197l3.548-3.548.072-.082a.903.903 0 0 0-.072-1.191l-.092-.08a.9.9 0 0 0-1.18.08L3.398 4.689zm10.42.811h-5a.8.8 0 1 0 0 1.6h5a.8.8 0 1 0 0-1.6zm0-3.5h-5a.8.8 0 1 0 0 1.6h5a.8.8 0 1 0 0-1.6z" id="ayc5"></path></g></svg>