<svg viewBox="0 0 16 16" xmlns="http://www.w3.org/2000/svg" fit="" height="1em" width="1em" preserveAspectRatio="xMidYMid meet" focusable="false"><g id="ayiaction/trash" stroke-width="1" fill-rule="evenodd"><path d="M4.002 3.403V1a1 1 0 0 1 1-1h6.003a1 1 0 0 1 1 1v2.403h3.396a.6.6 0 1 1 0 1.2h-1.395V15a1 1 0 0 1-1 1H3a1 1 0 0 1-1-1V4.603H.6a.6.6 0 1 1 0-1.2h3.4zm8.804 1.205H3.2V14.8h9.605V4.608zM5.202 1.2v2.155h5.603V1.2H5.202zm.6 6.417a.6.6 0 0 1 1.201 0v4.758a.6.6 0 0 1-1.2 0V7.617zm3.202 0a.6.6 0 0 1 1.2 0v4.758a.6.6 0 0 1-1.2 0V7.617z" id="ayi删除"></path></g></svg>