<svg viewBox="0 0 16 16" xmlns="http://www.w3.org/2000/svg" fit="" height="1em" width="1em" preserveAspectRatio="xMidYMid meet" focusable="false"><g id="afg1.Base基础/1.icon图标/2.normal/bulb-bold" stroke-width="1" fill-rule="evenodd"><path d="M8.119 1l.227.004c3.379.12 6.104 2.936 6.104 6.361a6.372 6.372 0 0 1-2.4 5.002l-.208.159-.117.08-.001 1.168.667.001c.376 0 .693.256.785.604l.02.107.007.101c0 .415-.31.757-.71.807l-.103.006-1.517-.002-.029.002H3.991a.812.812 0 0 1-.103-1.619l.102-.006.524-.001v-1.168l-.119-.084A6.378 6.378 0 0 1 1.8 7.362l.007-.268.017-.259c.248-3.018 2.614-5.482 5.582-5.798l.078-.012.164-.016.2-.007L8.12 1zm0 1.625l-.234.002-.159.008a1.837 1.837 0 0 0-.068.007l-.068.01c-2.199.233-3.962 2.07-4.147 4.324a4.75 4.75 0 0 0 1.703 4.072l.183.144.184.131.538.364.088.166-.001 1.921H10.1v-1.925l.09-.166.542-.364a4.742 4.742 0 0 0 2.093-3.954c0-2.605-2.122-4.74-4.707-4.74zm.296 1a3.517 3.517 0 0 1 3.507 3.508.863.863 0 0 1-.861.861.863.863 0 0 1-.862-.861 1.79 1.79 0 0 0-1.784-1.785.863.863 0 0 1-.862-.861c0-.475.387-.862.862-.862z" id="afg10"></path></g></svg>