<svg viewBox="0 0 16 16" xmlns="http://www.w3.org/2000/svg" fit="" height="1em" width="1em" preserveAspectRatio="xMidYMid meet" focusable="false"><g id="afh1.icon图标/8.rd/需求" stroke-width="1" fill-rule="evenodd"><path d="M13.076 0A2.925 2.925 0 0 1 16 2.924v10.152A2.924 2.924 0 0 1 13.076 16H2.923A2.922 2.922 0 0 1 0 13.076V2.924A2.924 2.924 0 0 1 2.923 0zm-4.21 12.63H7.144a.348.348 0 0 0 .008.696h1.72a.348.348 0 0 0-.008-.696zm.467-.981H6.667a.348.348 0 0 0 0 .696h2.675a.348.348 0 0 0-.009-.696zM8 3a4 4 0 0 0-2.22 7.327c.006.003.028.1.067.288l.032.158c.065.325.35.56.682.56h2.873a.696.696 0 0 0 .669-.548l.07-.324.026-.12A4 4 0 0 0 8 3zm-.728 1.557a.348.348 0 1 1 .128.684c-.832.155-1.207.671-1.26 1.635a.348.348 0 0 1-.695-.038c.07-1.261.651-2.061 1.827-2.28z" id="afh需求"></path></g></svg>