<svg viewBox="0 0 16 16" xmlns="http://www.w3.org/2000/svg" fit="" height="1em" width="1em" preserveAspectRatio="xMidYMid meet" focusable="false"><g id="aujnormal/sitemap" stroke-width="1" fill-rule="evenodd"><path d="M7.353 6.926V4.992H5.937V1h4.158v3.992H8.553v1.934H14.395v4.153h1.479v3.993h-4.158V11.08h1.479V8.125H8.553v2.933h1.542v3.993H5.937v-3.993h1.416V8.126H2.679v2.933h1.479v3.993H0v-3.993h1.479V6.926H7.353zm-.216-4.727v1.594h1.758V2.199H7.137zM1.2 12.26v1.592h1.758v-1.593H1.2zm11.716.02v1.594h1.758V12.28h-1.758zm-5.779-.02v1.592h1.758v-1.593H7.137z" id="auj形状结合"></path></g></svg>