<svg viewBox="0 0 16 16" xmlns="http://www.w3.org/2000/svg" fit="" height="1em" width="1em" preserveAspectRatio="xMidYMid meet" focusable="false"><g id="armtips/play-circle" stroke-width="1" fill-rule="evenodd"><path d="M0 8c0-4.4 3.6-8 8-8s8 3.6 8 8-3.6 8-8 8-8-3.6-8-8zm1.2 0c0 3.737 3.063 6.8 6.8 6.8 3.737 0 6.8-3.063 6.8-6.8 0-3.737-3.063-6.8-6.8-6.8-3.737 0-6.8 3.063-6.8 6.8zm9.858-.853a1.055 1.055 0 0 1 0 1.809l-3.66 2.196a1.055 1.055 0 0 1-1.598-.904V5.855a1.055 1.055 0 0 1 1.598-.905l3.66 2.197zm-.823.904L7 6.11v3.883l3.235-1.94z" id="arm形状结合"></path></g></svg>