<svg viewBox="0 0 16 16" xmlns="http://www.w3.org/2000/svg" fit="" height="1em" width="1em" preserveAspectRatio="xMidYMid meet" focusable="false"><g id="ajbrd/epic-square-fill" stroke-width="1" fill-rule="evenodd"><path d="M11.976 7.327l-4.61 6.114a.181.181 0 0 1-.132.057c-.025 0-.044-.007-.056-.02-.088-.024-.119-.074-.094-.15l.583-4.44H4.128c-.063 0-.107-.026-.13-.076-.039-.05-.033-.106.018-.17L8.927 2.53c.05-.076.106-.088.17-.038.061.013.093.063.093.15l-.583 4.44h3.238c.062 0 .106.027.131.077a.37.37 0 0 1 0 .169M12.767 0H3.191a3.201 3.201 0 0 0-3.19 3.192v9.575a3.201 3.201 0 0 0 3.19 3.192h9.576a3.201 3.201 0 0 0 3.191-3.192V3.192A3.201 3.201 0 0 0 12.768 0" id="ajbFill-1"></path></g></svg>