<svg viewBox="0 0 16 16" xmlns="http://www.w3.org/2000/svg" fit="" height="1em" width="1em" preserveAspectRatio="xMidYMid meet" focusable="false"><g id="ajrrd/feature-square-fill" stroke-width="1" fill-rule="evenodd"><path d="M13.285 10.633a.279.279 0 0 1-.326.278c-1.678-.28-3.254-.194-4.462.562a.153.153 0 0 1-.232-.132l.002-5.56a.56.56 0 0 1 .232-.463c1.173-.888 2.786-1.004 4.536-.708a.3.3 0 0 1 .252.297l-.002 5.726zm-5.824.84c-1.209-.756-2.782-.841-4.463-.563a.278.278 0 0 1-.325-.277l-.002-5.725a.3.3 0 0 1 .251-.299c1.751-.295 3.363-.18 4.537.708a.56.56 0 0 1 .23.463l.002 5.561a.151.151 0 0 1-.23.132zM12.766 0H3.192A3.2 3.2 0 0 0 0 3.193v9.575a3.2 3.2 0 0 0 3.192 3.192h9.574a3.2 3.2 0 0 0 3.192-3.192V3.192A3.2 3.2 0 0 0 12.766 0z" id="ajrFill-1"></path></g></svg>