<svg viewBox="0 0 16 16" xmlns="http://www.w3.org/2000/svg" fit="" height="1em" width="1em" preserveAspectRatio="xMidYMid meet" focusable="false"><g id="bah1.Base基础/1.icon图标/8.rd/view-filter" stroke-width="1" fill-rule="evenodd"><path d="M6.037 0a2.5 2.5 0 0 1 1.746.71L9.105 2H13.5A2.5 2.5 0 0 1 16 4.5v9a2.5 2.5 0 0 1-2.5 2.5h-11A2.5 2.5 0 0 1 0 13.5v-11A2.5 2.5 0 0 1 2.5 0h3.537zm0 1.2H2.5a1.3 1.3 0 0 0-1.293 1.167L1.2 2.5v11a1.3 1.3 0 0 0 1.167 1.293l.133.007h11a1.3 1.3 0 0 0 1.293-1.167l.007-.133v-9a1.3 1.3 0 0 0-1.167-1.292L13.5 3.2H8.616L6.946 1.57a1.3 1.3 0 0 0-.764-.362L6.037 1.2zm3.111 9.7v1.2H6.995v-1.2h2.153zm1-2.6v1.2H5.995V8.3h4.153zm1-2.4v1.2H4.995V5.9h6.153z" id="bah形状结合"></path></g></svg>