<svg viewBox="0 0 16 16" xmlns="http://www.w3.org/2000/svg" fit="" height="1em" width="1em" preserveAspectRatio="xMidYMid meet" focusable="false"><g id="axird/task-square-fill" stroke-width="1" fill-rule="evenodd"><path d="M12.03 5.981l-4.213 5.204c-.001.002-.002.002-.003.002-.028.036-.045.079-.08.11-.06.058-.135.088-.206.127l-.008.005a.906.906 0 0 1-.334.101l-.023.005a.948.948 0 0 1-.31-.027c-.023-.006-.047-.01-.071-.017a.92.92 0 0 1-.228-.12c-.027-.017-.06-.023-.086-.043-.014-.013-.02-.03-.034-.042-.016-.016-.038-.022-.053-.04L3.97 8.65a.958.958 0 1 1 1.406-1.304L7.022 9.12l3.518-4.344a.958.958 0 1 1 1.49 1.205m.737-5.98H3.192A3.201 3.201 0 0 0 0 3.19v9.577a3.202 3.202 0 0 0 3.192 3.19h9.575a3.201 3.201 0 0 0 3.192-3.19V3.19a3.2 3.2 0 0 0-3.192-3.19" id="axiFill-1"></path></g></svg>