<svg viewBox="0 0 16 16" xmlns="http://www.w3.org/2000/svg" fit="" height="1em" width="1em" preserveAspectRatio="xMidYMid meet" focusable="false"><g id="arg1.Base基础/1.icon图标/2.normal/plan" stroke-width="1" fill-rule="evenodd"><path d="M6.037 0a2.5 2.5 0 0 1 1.746.71L9.105 2H13.5A2.5 2.5 0 0 1 16 4.5v9a2.5 2.5 0 0 1-2.5 2.5h-11A2.5 2.5 0 0 1 0 13.5v-11A2.5 2.5 0 0 1 2.5 0h3.537zm0 1.2H2.5a1.3 1.3 0 0 0-1.293 1.167L1.2 2.5v11a1.3 1.3 0 0 0 1.167 1.293l.133.007h11a1.3 1.3 0 0 0 1.293-1.167l.007-.133v-9a1.3 1.3 0 0 0-1.167-1.292L13.5 3.2H8.616L6.946 1.57a1.3 1.3 0 0 0-.764-.362L6.037 1.2zm-.764 4.763v6.229h-1.2v-6.23h1.2zm3.327 3.5v2.729H7.4v-2.73h1.2zm3.327-2.144v4.873h-1.2V7.319h1.2z" id="arg形状结合"></path></g></svg>