<svg viewBox="0 0 16 16" xmlns="http://www.w3.org/2000/svg" fit="" height="1em" width="1em" preserveAspectRatio="xMidYMid meet" focusable="false"><g id="amf1.Base基础/1.icon图标/2.normal/house-fill" stroke-width="1" fill-rule="evenodd"><path d="M8.352 1.34l.003.002 6.519 6.576a.5.5 0 0 1-.355.852h-1.792v5.578a.5.5 0 0 1-.5.5H9.54v-3.831a.5.5 0 0 0-.41-.492l-.09-.008H6.96a.5.5 0 0 0-.492.41l-.008.09v3.83H3.773a.5.5 0 0 1-.5-.5L3.272 8.77h-1.79a.5.5 0 0 1-.356-.852l6.519-6.576a.5.5 0 0 1 .707-.003z" id="amf形状结合"></path></g></svg>