<svg viewBox="0 0 16 16" xmlns="http://www.w3.org/2000/svg" fit="" height="1em" width="1em" preserveAspectRatio="xMidYMid meet" focusable="false"><g id="aisnormal/email" stroke-width="1" fill-rule="evenodd"><path d="M14 2a2 2 0 0 1 2 2v8a2 2 0 0 1-2 2H2a2 2 0 0 1-2-2V4a2 2 0 0 1 2-2h12zM1.199 6.352L1.2 12a.8.8 0 0 0 .7.794l.1.006h12a.8.8 0 0 0 .794-.7l.006-.1V6.38L7.999 9.014l-6.8-2.662zM14 3.2H2a.8.8 0 0 0-.794.7L1.2 4l-.001 1.11.016-.04L8 7.726l6.8-2.633V4a.8.8 0 0 0-.7-.794L14 3.2z" id="ais形状结合"></path></g></svg>