<svg viewBox="0 0 16 16" xmlns="http://www.w3.org/2000/svg" fit="" height="1em" width="1em" preserveAspectRatio="xMidYMid meet" focusable="false"><g id="acj1.Base基础/1.icon图标/9.application/app-program-fill" stroke-width="1" fill-rule="evenodd"><path d="M6.02 0a2.5 2.5 0 0 1 1.767.731l1.318 1.316H13.5a2.5 2.5 0 0 1 2.5 2.5V13.5a2.5 2.5 0 0 1-2.5 2.5h-11A2.5 2.5 0 0 1 0 13.5v-11A2.5 2.5 0 0 1 2.5 0h3.52zm-.747 5.963h-1.2v6.229h1.2v-6.23zm3.327 3.5H7.4v2.729h1.2v-2.73zm3.327-2.144h-1.2v4.873h1.2V7.319z" id="acj形状结合"></path></g></svg>