<svg viewBox="0 0 16 16" xmlns="http://www.w3.org/2000/svg" fit="" height="1em" width="1em" preserveAspectRatio="xMidYMid meet" focusable="false"><g id="alv1.Base基础/1.icon图标/2.normal/headset-bold" stroke-width="1" fill-rule="evenodd"><path d="M1 7.992c0-2.553 1.47-4.809 3.599-6.03l.044-.024A7.148 7.148 0 0 1 8.19 1h.002a7.164 7.164 0 0 1 3.77 1.07c1.967 1.202 3.33 3.304 3.414 5.688l.004.234v.077l.002.122v5.002c0 .853-.628 1.562-1.438 1.638l-.145.007h-1.816c-1.074 0-1.946-.873-2.02-1.97l-.004-.15v-2.131c0-1.115.824-2.037 1.879-2.115l.145-.006h1.77l.027.001v-.475c0-2.93-2.575-5.392-5.59-5.392-2.942 0-5.464 2.344-5.585 5.178l-.005.214-.001.473H4.35c1.076 0 1.948.874 2.022 1.97l.005.15v2.133c0 1.115-.826 2.036-1.88 2.115l-.146.005H2.584c-.831 0-1.505-.661-1.578-1.496L1 13.192v-5.2zm11.042 2.073l-.086.002c-.183.014-.355.185-.39.426l-.007.094-.001 2.077.002.097c.017.25.175.432.355.47l.068.007h1.81l-.012-.003.001-3.167-.029-.002h-1.71zm-9.443 0v3.059l.001.08c.002.02.004.029-.001.032l-.015.002 1.708.001.087-.002c.183-.014.355-.185.391-.426l.007-.093v-2.079l-.001-.097c-.017-.25-.176-.432-.357-.47l-.069-.007H2.6z" id="alv形状结合"></path></g></svg>