<svg viewBox="0 0 16 16" xmlns="http://www.w3.org/2000/svg" fit="" height="1em" width="1em" preserveAspectRatio="xMidYMid meet" focusable="false"><g id="aue1.Base基础/1.icon图标/2.normal/个人空间" stroke-width="1" fill-rule="evenodd"><path d="M7.82.088a.6.6 0 0 1 .337 0l6.612 1.931a.6.6 0 0 1 .432.576v3.961c0 4.35-2.756 7.955-7.025 9.377a.6.6 0 0 1-.379 0C3.527 14.511.771 10.906.771 6.554V2.595a.6.6 0 0 1 .432-.576zm.168 1.2L1.97 3.045v3.51c0 3.727 2.297 6.822 5.93 8.144l.086.029.085-.03c3.541-1.288 5.813-4.262 5.924-7.864l.005-.278L14 3.045 7.988 1.288zM7.986 3.37a2.437 2.437 0 0 1 1.747 4.137 3.535 3.535 0 0 1 1.793 3.078.6.6 0 1 1-1.2 0 2.34 2.34 0 1 0-4.68 0 .6.6 0 0 1-1.2 0c0-1.32.722-2.47 1.792-3.08a2.437 2.437 0 0 1 1.747-4.135zm0 1.2a1.237 1.237 0 1 0 0 2.475 1.237 1.237 0 0 0 0-2.475z" id="aue形状结合"></path></g></svg>