<svg viewBox="0 0 16 16" xmlns="http://www.w3.org/2000/svg" fit="" height="1em" width="1em" preserveAspectRatio="xMidYMid meet" focusable="false"><g id="atvnormal/security" stroke-width="1" fill-rule="evenodd"><path d="M8.6 9.5h1.29v1.2H8.6v1.4H7.4V8.513a2.1 2.1 0 1 1 1.2 0V9.5zm5.898-6.653l.002 6.189c0 .832-.236 1.7-.704 2.584a9.149 9.149 0 0 1-1.66 2.191 9.476 9.476 0 0 1-2.071 1.562C9.309 15.783 8.595 16 8 16c-.597 0-1.305-.212-2.05-.617a9.5 9.5 0 0 1-2.087-1.572C2.361 12.328 1.5 10.588 1.5 9.036V2.283l1.137-.017c.012 0 1.222-.024 2.494-.558C6.46 1.15 7.286.535 7.321.508L7.997 0l.687.512c.007.005.858.64 2.187 1.196a7.809 7.809 0 0 0 2.493.558l1.134.017v.564zM13.3 9.036l-.002-5.572a8.503 8.503 0 0 1-2.89-.65C9.333 2.366 8.435 1.83 8 1.5c-.469.352-1.341.869-2.404 1.315-1.098.462-2.22.644-2.896.651v5.57c0 1.201.717 2.649 2.007 3.922.57.561 1.2 1.037 1.816 1.372.581.315 1.1.471 1.478.471.371 0 .898-.16 1.49-.481a8.285 8.285 0 0 0 1.803-1.364 7.953 7.953 0 0 0 1.441-1.896c.38-.718.565-1.397.565-2.023zM8 7.4a.9.9 0 1 0 0-1.8.9.9 0 0 0 0 1.8z" id="atv形状结合"></path></g></svg>