<svg viewBox="0 0 16 16" xmlns="http://www.w3.org/2000/svg" fit="" height="1em" width="1em" preserveAspectRatio="xMidYMid meet" focusable="false"><g id="azcaction/user-add-bold" stroke-width="1" fill-rule="evenodd"><path d="M12.5 10.3a.7.7 0 0 1 .7.7v1.3h1.3a.7.7 0 0 1 0 1.4h-1.3V15a.7.7 0 0 1-1.4 0v-1.3h-1.3a.7.7 0 0 1 0-1.4h1.3V11a.7.7 0 0 1 .7-.7zM8 .3a4.2 4.2 0 1 1-.234 8.394.686.686 0 0 1-.28.123 6.311 6.311 0 0 0-4.552 3.64A6.275 6.275 0 0 0 2.4 15 .7.7 0 0 1 1 15c0-1.084.225-2.138.654-3.11a7.722 7.722 0 0 1 3.95-3.942A4.2 4.2 0 0 1 8 .3zm0 1.4a2.8 2.8 0 1 0 0 5.6 2.8 2.8 0 0 0 0-5.6z" id="azc形状结合"></path></g></svg>