<svg viewBox="0 0 16 16" xmlns="http://www.w3.org/2000/svg" fit="" height="1em" width="1em" preserveAspectRatio="xMidYMid meet" focusable="false"><g id="arv1.Base基础/1.icon图标/9.application/products" stroke-width="1" fill-rule="evenodd"><path d="M7.5 8.49v3.247a3.246 3.246 0 0 1-3.036 3.317l-.214.007A3.25 3.25 0 0 1 1 11.736a3.244 3.244 0 0 1 3.053-3.24l.198-.006h3.248zm4.25 0c1.314 0 2.5.791 3.003 2.005a3.244 3.244 0 0 1-2.816 4.484l-.18.005a3.248 3.248 0 0 1-3.252-3.07l-.005-.178V8.49h3.25zm-7.463 1.2l-.161.004c-.5.03-.971.242-1.325.596-.384.383-.6.904-.6 1.475a2.046 2.046 0 0 0 1.01 1.813 2.05 2.05 0 0 0 3.086-1.665l.002-.176V9.69H4.287zm7.463 0H9.7v2.014l.004.145a2.047 2.047 0 0 0 1.873 1.93l.145.006.147-.004c.5-.03.974-.24 1.332-.597a2.044 2.044 0 0 0-1.285-3.487l-.165-.007zM4.252 1l.172.005a3.249 3.249 0 0 1 3.071 3.069l.005.172v3.246H4.25a3.248 3.248 0 0 1-.169-6.484L4.252 1zm7.497.054c1.773 0 3.219 1.42 3.25 3.192a3.248 3.248 0 0 1-3.078 3.242l-.172.004h-3.25V4.246a3.248 3.248 0 0 1 3.079-3.187l.17-.005zM4.265 2.2l-.092.005a2.049 2.049 0 0 0-1.888 1.89l-.006.151c0 1.06.81 1.937 1.826 2.037l.146.01L6.3 6.291 6.3 4.278l-.003-.141c-.055-1.042-.892-1.879-1.905-1.933L4.265 2.2zm7.484.054l-.11.003a2.047 2.047 0 0 0-1.932 1.84l-.008.15-.001 2.045h2.02l.14-.003a2.043 2.043 0 0 0 1.94-2.023A2.048 2.048 0 0 0 11.9 2.26l-.151-.006z" id="arv形状备份-3"></path></g></svg>