<svg viewBox="0 0 16 16" xmlns="http://www.w3.org/2000/svg" fit="" height="1em" width="1em" preserveAspectRatio="xMidYMid meet" focusable="false"><g id="aud1.Base基础/1.icon图标/8.rd/ship-fill" stroke-width="1" fill-rule="evenodd"><path d="M6.02 0a2.5 2.5 0 0 1 1.767.731l1.318 1.316H13.5a2.5 2.5 0 0 1 2.5 2.5V13.5a2.5 2.5 0 0 1-2.5 2.5h-11A2.5 2.5 0 0 1 0 13.5v-11A2.5 2.5 0 0 1 2.5 0h3.52zm4.044 9.545H8.549v1.46l-.002.017c0 .817.66 1.478 1.475 1.478.814 0 1.474-.661 1.474-1.478a1.48 1.48 0 0 0-1.432-1.477zm-2.616 0H5.933A1.48 1.48 0 0 0 4.5 11.021c0 .816.66 1.477 1.474 1.477.815 0 1.475-.661 1.475-1.477l-.002-.018v-1.46zM5.975 5.501c-.815 0-1.475.661-1.475 1.478 0 .8.638 1.45 1.432 1.477h1.515v-1.46l.002-.017c0-.817-.66-1.478-1.474-1.478zm4.05-.002c-.814 0-1.474.661-1.474 1.477l.002.018v1.46h1.515A1.48 1.48 0 0 0 11.5 6.977c0-.816-.66-1.477-1.475-1.477z" id="aud形状结合"></path></g></svg>