<svg viewBox="0 0 16 16" xmlns="http://www.w3.org/2000/svg" fit="" height="1em" width="1em" preserveAspectRatio="xMidYMid meet" focusable="false"><g id="alh1.Base基础/1.icon图标/8.rd/gantt-square-fill" stroke-width="1" fill-rule="evenodd"><path d="M6.02 0a2.5 2.5 0 0 1 1.767.731l1.318 1.316H13.5a2.5 2.5 0 0 1 2.5 2.5V13.5a2.5 2.5 0 0 1-2.5 2.5h-11A2.5 2.5 0 0 1 0 13.5v-11A2.5 2.5 0 0 1 2.5 0h3.52zm6.054 10.5h-8v1.2h8v-1.2zm-1.548-4.749L8.74 7.538l1.787 1.787 1.787-1.787-1.787-1.787zM7.052 6.938H4.096v1.2h2.956v-1.2z" id="alh形状结合"></path></g></svg>