<svg viewBox="0 0 16 16" xmlns="http://www.w3.org/2000/svg" fit="" height="1em" width="1em" preserveAspectRatio="xMidYMid meet" focusable="false"><g id="abnapplication/app-calendar" stroke-width="1" fill-rule="evenodd"><path d="M4.485 2.053v-1h1.4v1h4.267v-1h1.4v1h1.266c1.473 0 2.667 1.253 2.667 2.8v7.4c0 1.546-1.194 2.8-2.667 2.8H3.152c-1.473 0-2.667-1.254-2.667-2.8v-7.4c0-1.547 1.194-2.8 2.667-2.8h1.333zm0 1.4H3.152c-.684 0-1.267.612-1.267 1.4V6.78h12.2V4.853c0-.788-.583-1.4-1.267-1.4h-1.266v.782h-1.4v-.782H5.885v.782h-1.4v-.782zm9.6 4.727h-12.2v4.073c0 .788.583 1.4 1.267 1.4h9.666c.684 0 1.267-.612 1.267-1.4V8.18z" id="abn1.4"></path></g></svg>