<svg viewBox="0 0 16 16" xmlns="http://www.w3.org/2000/svg" fit="" height="1em" width="1em" preserveAspectRatio="xMidYMid meet" focusable="false"><g id="atr1.Base基础/1.icon图标/8.rd/scrum-fill" stroke-width="1" fill-rule="evenodd"><path d="M6.02 0a2.5 2.5 0 0 1 1.767.731l1.318 1.316H13.5a2.5 2.5 0 0 1 2.5 2.5V13.5a2.5 2.5 0 0 1-2.5 2.5h-11A2.5 2.5 0 0 1 0 13.5v-11A2.5 2.5 0 0 1 2.5 0h3.52zm1.724 5.7c-1.31 0-2.414.852-2.809 2.03h-.677a.096.096 0 0 0-.074.157l1.397 1.676a.096.096 0 0 0 .147 0l1.397-1.676a.096.096 0 0 0-.074-.157h-.805a1.763 1.763 0 0 1 1.498-.838A1.79 1.79 0 0 1 9.53 8.68c0 .966-.775 1.752-1.736 1.78h-3.83v1.222l7.601-.01v-1.223l-1.45.01c.376-.497.607-1.11.607-1.78A2.982 2.982 0 0 0 7.744 5.7z" id="atr形状结合"></path></g></svg>