<svg viewBox="0 0 16 16" xmlns="http://www.w3.org/2000/svg" fit="" height="1em" width="1em" preserveAspectRatio="xMidYMid meet" focusable="false"><g id="afdrd/bug-square-fill" stroke-width="1" fill-rule="evenodd"><path d="M12.766 0a3.2 3.2 0 0 1 3.192 3.192v9.575a3.2 3.2 0 0 1-3.192 3.191H3.191A3.201 3.201 0 0 1 0 12.767V3.192A3.202 3.202 0 0 1 3.191 0h9.575zm-1.441 13.017c1.248-1.554 1.514-2.927.9-4.194-.607-1.25-1.73-1.719-3.562-1.365l2.662 5.559zM7.98 7.932L6.104 11.85a3.3 3.3 0 0 0 2.114.763c.647 0 1.25-.185 1.761-.507L7.98 7.932zm0-1.162c.761-.19 1.446-.269 2.053-.235.008-.07.011-.148.011-.231 0-.674-.255-1.28-.66-1.692a2.62 2.62 0 0 1 1.429-.415.547.547 0 0 0 0-1.094c-.98 0-1.825.35-2.517.958a1.7 1.7 0 0 0-.486.014 3.728 3.728 0 0 0-2.533-.972.547.547 0 0 0 0 1.094c.555 0 1.057.161 1.496.459a2.426 2.426 0 0 0-.607 1.872c.546-.004 1.151.076 1.814.242zm-3.345 6.247l2.662-5.56c-1.832-.353-2.955.116-3.561 1.366-.615 1.267-.35 2.64.9 4.194z" id="afd形状结合"></path></g></svg>