<svg viewBox="0 0 16 16" xmlns="http://www.w3.org/2000/svg" fit="" height="1em" width="1em" preserveAspectRatio="xMidYMid meet" focusable="false"><g id="aut1.Base基础/1.icon图标/2.normal/sort-positive-sequence" stroke-width="1" fill-rule="evenodd"><path d="M4.7 1.068v11.93l2.182-2.18.848.849-3.515 3.515-.582-.583H3.5v-.133l-2.8-2.8.849-.848L3.5 12.77V1.068h1.2zm9.771 8.082v.972l-2.779 3.527h1.711v-1.33H14.6v2.53h-4.558v-1.026l2.725-3.474h-1.57v.921H10V9.15h4.471zM11.791 1l1.11.014 1.474 5.785.938.001V8h-2.62V6.8l.382-.001-.198-.918h-1.354l-.24.918.504.001V8H9.19V6.8l.756-.001L11.792 1zm.478 2.038l-.498 1.898h.904l-.406-1.898z" id="aut形状结合"></path></g></svg>