<svg viewBox="0 0 16 16" xmlns="http://www.w3.org/2000/svg" fit="" height="1em" width="1em" preserveAspectRatio="xMidYMid meet" focusable="false"><g id="avbaction/star-" stroke-width="1" fill-rule="evenodd"><path d="M14.387 8.263c.526-.451.751-1.127.526-1.804-.225-.676-.751-1.127-1.503-1.127l-2.48-.15a.565.565 0 0 1-.525-.376l-.902-2.254A1.634 1.634 0 0 0 8 1.5c-.676 0-1.277.376-1.503 1.052l-.902 2.254c-.075.226-.3.376-.525.451l-2.48.075c-.676 0-1.278.451-1.503 1.127-.225.677 0 1.353.526 1.804L3.492 9.84c.15.15.3.375.225.6l-.601 2.405c-.15.601.075 1.353.601 1.729.3.225.601.3.977.3.3 0 .6-.075.901-.3l2.03-1.353c.225-.15.45-.15.676 0l2.028 1.353c.601.375 1.278.375 1.879-.076.526-.375.826-1.052.601-1.728l-.601-2.33c-.075-.225 0-.45.225-.676l1.954-1.502zm-3.457 2.104l.677 2.404c.15.526-.451.902-.827.601L8.676 12.02a1.291 1.291 0 0 0-1.277 0l-2.104 1.352c-.45.3-.977-.15-.827-.6l.677-2.405c.15-.451 0-.902-.376-1.203L2.74 7.586c-.376-.375-.15-.976.3-1.052l2.48-.15c.451 0 .827-.3 1.052-.751l.902-2.33c.15-.45.827-.45 1.052 0l.902 2.33c.15.45.526.751 1.052.751l2.48.15c.525 0 .75.677.3.977L11.306 9.09c-.3.3-.45.827-.376 1.278z" id="avb形状"></path></g></svg>