<svg viewBox="0 0 16 16" xmlns="http://www.w3.org/2000/svg" fit="" height="1em" width="1em" preserveAspectRatio="xMidYMid meet" focusable="false"><g id="aziconfig" stroke-width="1" fill-rule="evenodd"><g id="aziuser-group-circle-fill" transform="translate(-638 -808)"><path d="M646 808a8 8 0 1 1 0 16 8 8 0 0 1 0-16zm-1.311 4a2.367 2.367 0 0 0-2.373 2.36c0 .761.361 1.438.923 1.87l-.03.011a3.668 3.668 0 0 0-2.209 3.366l.008.079c.037.18.196.314.387.314l.08-.008a.394.394 0 0 0 .316-.385l-.003-.01.006-.16a2.894 2.894 0 0 1 2.895-2.716c1.601 0 2.9 1.292 2.9 2.886h.006l.008.079a.395.395 0 0 0 .783-.08l-.008-.079-.003-.115a3.674 3.674 0 0 0-2.207-3.17l-.03-.013a2.353 2.353 0 0 0 .923-1.868A2.367 2.367 0 0 0 644.69 812zm2.966.656v.787a1.25 1.25 0 0 1 1.252 1.246 1.25 1.25 0 0 1-1.252 1.245v.787c1.3 0 2.375.96 2.544 2.208v.015c0 .218.177.394.396.394a.394.394 0 0 0 .395-.386h.01a3.345 3.345 0 0 0-1.997-2.736c.426-.373.695-.919.695-1.527a2.038 2.038 0 0 0-2.043-2.033zm-2.966.13c.873 0 1.582.705 1.582 1.575 0 .869-.709 1.573-1.582 1.573a1.578 1.578 0 0 1-1.582-1.573c0-.87.708-1.574 1.582-1.574z" id="azinormal/team-fill"></path></g></g></svg>