<svg viewBox="0 0 16 16" xmlns="http://www.w3.org/2000/svg" fit="" height="1em" width="1em" preserveAspectRatio="xMidYMid meet" focusable="false"><g id="aiiaction/designated" stroke-width="1" fill-rule="evenodd"><path d="M15.334 9.455l-2.393 1.38 1.399 2.419-3.06 1.767-1.398-2.42-2.39 1.382L7.4 4.766l7.935 4.69zM8.62 6.881l.051 5.034 1.65-.953 1.398 2.42.98-.567-1.396-2.42 1.65-.952L8.62 6.88zM10.604 1A2.6 2.6 0 0 1 13.2 3.436l.005.164v1.646h-1.2V3.6a1.4 1.4 0 0 0-1.265-1.394l-.135-.006h-7a1.4 1.4 0 0 0-1.393 1.265l-.007.135-.004 8.38a1.4 1.4 0 0 0 1.265 1.394l.135.006h1.953v1.2H3.6a2.6 2.6 0 0 1-2.595-2.436L1 11.98l.004-8.38A2.6 2.6 0 0 1 3.44 1.005L3.604 1h7z" id="aii形状结合"></path></g></svg>