<svg viewBox="0 0 16 16" xmlns="http://www.w3.org/2000/svg" fit="" height="1em" width="1em" preserveAspectRatio="xMidYMid meet" focusable="false"><g id="asb1.Base基础/1.icon图标/2.normal/publish" stroke-width="1" fill-rule="evenodd"><path d="M9.4 2a.6.6 0 1 1 0 1.2L8 3.199V3.2H2.2v10.6h11.6L13.798 9h.002v-.4a.6.6 0 0 1 1.2 0v.8l-.001.01L15 14a1 1 0 0 1-1 1H2a1 1 0 0 1-1-1V3a1 1 0 0 1 1-1h7.4zM11.965.217l3.813 3.681c.113.11.174.254.182.4v.04l-.001.042a.591.591 0 0 1-.181.4l-3.813 3.682a.6.6 0 1 1-.833-.864L13.925 4.9l-.166.004C10.319 5.01 7.6 7.407 7.6 10.3a.6.6 0 0 1-1.2 0c0-3.622 3.338-6.528 7.447-6.599L11.132 1.08a.6.6 0 1 1 .833-.863z" id="asb形状结合"></path></g></svg>