<svg viewBox="0 0 16 16" xmlns="http://www.w3.org/2000/svg" fit="" height="1em" width="1em" preserveAspectRatio="xMidYMid meet" focusable="false"><g id="asc1.icon图标/8.rd/其他-产品支持" stroke-width="1" fill-rule="evenodd"><path d="M12.907 0a3.236 3.236 0 0 1 3.226 3.227v9.68a3.236 3.236 0 0 1-3.226 3.226h-9.68A3.236 3.236 0 0 1 0 12.907v-9.68A3.236 3.236 0 0 1 3.227 0zm-1.202 3.26c-1.673.004-3.345 0-5.018.002a2.66 2.66 0 0 0-1.486.5 2.687 2.687 0 0 0-1.118 2.111c-.004.187.004.373-.005.56v4.982H3.072v.058c.013.297.12.59.309.822.254.319.654.518 1.063.52h4.975a2.669 2.669 0 0 0 1.748-.689c.481-.432.8-1.044.867-1.688a.126.126 0 0 1 .017-.063c.003-.663 0-1.327.002-1.99V4.663h1.019v-.036a1.4 1.4 0 0 0-1.366-1.366zM9.5 9a.5.5 0 0 1 0 1h-3l-.09-.008A.5.5 0 0 1 6.5 9zm0-3a.5.5 0 0 1 0 1h-3l-.09-.008A.5.5 0 0 1 6.5 6z" id="asc形状结合"></path></g></svg>