<svg viewBox="0 0 16 16" xmlns="http://www.w3.org/2000/svg" fit="" height="1em" width="1em" preserveAspectRatio="xMidYMid meet" focusable="false"><g id="angrd/issue-square-fill" stroke-width="1" fill-rule="evenodd"><path d="M12.907 0a3.236 3.236 0 0 1 3.226 3.227v9.68a3.236 3.236 0 0 1-3.226 3.226h-9.68A3.236 3.236 0 0 1 0 12.907v-9.68A3.236 3.236 0 0 1 3.227 0h9.68zM6.615 4.033c-.484 0-.484.404-.484.404v.403c0 .242.161.403.403.403h3.307c.242 0 .404-.161.404-.403v-.403c0-.242-.162-.404-.404-.404h-.403c-.242 0-.403-.161-.403-.403 0-.242-.162-.403-.404-.403h-.806c-.242 0-.404.161-.404.403 0 .242-.161.403-.403.403h-.403zM12.18 12.1V5.082c0-.242-.242-.484-.484-.484h-.726v.403a.895.895 0 0 1-.888.888h-3.63A.895.895 0 0 1 5.566 5v-.484H4.84c-.242 0-.484.242-.484.484V12.1c0 .323.242.645.645.645h6.534a.636.636 0 0 0 .646-.645zM7.905 4.033a.403.403 0 1 1 .807 0 .403.403 0 0 1-.807 0zm.888 5.728c.242 0 .403.242.403.484s-.242.484-.484.484h-2.5c-.243 0-.485-.242-.485-.484s.242-.484.484-.484h2.582zm1.29-2.42c.242 0 .484.242.484.484s-.242.484-.484.484H6.211c-.242 0-.484-.242-.484-.484s.242-.484.484-.484h3.872z" id="ang形状结合"></path></g></svg>